<svg width="25" height="27" viewBox="0 0 25 27" fill="none" xmlns="http://www.w3.org/2000/svg">
<path id="21. Verified" d="M23.9633 14.9866C23.5588 14.4283 23.341 13.7564 23.341 13.067C23.341 12.3775 23.5588 11.7056 23.9633 11.1473L24.7922 10.002C24.8936 9.86219 24.9603 9.70027 24.9868 9.52961C25.0134 9.35894 24.999 9.18442 24.9449 9.02039C24.8903 8.85808 24.7989 8.71061 24.6778 8.58951C24.5567 8.46841 24.4092 8.37697 24.2469 8.32233L22.9053 7.88604C22.2481 7.67404 21.6752 7.25871 21.2694 6.69998C20.8636 6.14125 20.6458 5.46803 20.6475 4.77748V3.35954C20.6474 3.18739 20.6065 3.01771 20.5282 2.86438C20.4499 2.71105 20.3365 2.57843 20.1971 2.47737C20.0577 2.3763 19.8964 2.30966 19.7264 2.28289C19.5563 2.25612 19.3823 2.26999 19.2187 2.32336L17.8662 2.75964C17.2096 2.97212 16.5026 2.97155 15.8463 2.75802C15.19 2.54449 14.6181 2.12893 14.2122 1.57076L13.3833 0.4255C13.2774 0.292768 13.1431 0.18559 12.9901 0.111929C12.8372 0.0382681 12.6696 1.66431e-05 12.4998 1.66431e-05C12.33 1.66431e-05 12.1625 0.0382681 12.0095 0.111929C11.8566 0.18559 11.7222 0.292768 11.6163 0.4255L10.7874 1.57076C10.3815 2.12893 9.80956 2.54449 9.1533 2.75802C8.49704 2.97155 7.79006 2.97212 7.13346 2.75964L5.78096 2.32336C5.61729 2.26999 5.4433 2.25612 5.27324 2.28289C5.10318 2.30966 4.94187 2.3763 4.80251 2.47737C4.66314 2.57843 4.54968 2.71105 4.4714 2.86438C4.39312 3.01771 4.35224 3.18739 4.35211 3.35954V4.77748C4.35379 5.46803 4.136 6.14125 3.73019 6.69998C3.32437 7.25871 2.75153 7.67404 2.09432 7.88604L0.752732 8.32233C0.590423 8.37697 0.442953 8.46841 0.321855 8.58951C0.200756 8.71061 0.109311 8.85808 0.0546698 9.02039C0.000582553 9.18442 -0.0137782 9.35894 0.0127694 9.52961C0.039317 9.70027 0.106014 9.86219 0.207371 10.002L1.03632 11.1473C1.44081 11.7056 1.65859 12.3775 1.65859 13.067C1.65859 13.7564 1.44081 14.4283 1.03632 14.9866L0.207371 16.1319C0.106014 16.2717 0.039317 16.4337 0.0127694 16.6043C-0.0137782 16.775 0.000582553 16.9495 0.0546698 17.1135C0.109311 17.2759 0.200756 17.4233 0.321855 17.5444C0.442953 17.6655 0.590423 17.757 0.752732 17.8116L2.09432 18.2479C2.75153 18.4599 3.32437 18.8752 3.73019 19.434C4.136 19.9927 4.35379 20.6659 4.35211 21.3565V22.7744C4.35224 22.9465 4.39312 23.1162 4.4714 23.2696C4.54968 23.4229 4.66314 23.5555 4.80251 23.6566C4.94187 23.7576 5.10318 23.8243 5.27324 23.851C5.4433 23.8778 5.61729 23.8639 5.78096 23.8106L7.12255 23.3743C7.78055 23.1582 8.4902 23.157 9.14897 23.3707C9.80774 23.5844 10.3815 24.002 10.7874 24.5632L11.6163 25.7084C11.7182 25.8471 11.8512 25.9598 12.0047 26.0375C12.1582 26.1152 12.3278 26.1557 12.4998 26.1557C12.6718 26.1557 12.8415 26.1152 12.9949 26.0375C13.1484 25.9598 13.2815 25.8471 13.3833 25.7084L14.2122 24.5632C14.6188 24.0028 15.1926 23.5858 15.8511 23.3722C16.5097 23.1585 17.219 23.1593 17.8771 23.3743L19.2187 23.8106C19.3823 23.8639 19.5563 23.8778 19.7264 23.851C19.8964 23.8243 20.0577 23.7576 20.1971 23.6566C20.3365 23.5555 20.4499 23.4229 20.5282 23.2696C20.6065 23.1162 20.6474 22.9465 20.6475 22.7744V21.3565C20.6458 20.6659 20.8636 19.9927 21.2694 19.434C21.6752 18.8752 22.2481 18.4599 22.9053 18.2479L24.2469 17.8116C24.4092 17.757 24.5567 17.6655 24.6778 17.5444C24.7989 17.4233 24.8903 17.2759 24.9449 17.1135C24.999 16.9495 25.0134 16.775 24.9868 16.6043C24.9603 16.4337 24.8936 16.2717 24.7922 16.1319L23.9633 14.9866ZM17.6371 11.6567L12.1835 17.1103C11.979 17.3148 11.7016 17.4296 11.4124 17.4296C11.1231 17.4296 10.8458 17.3148 10.6412 17.1103L7.36905 13.8381C7.26488 13.7375 7.18178 13.6171 7.12462 13.4841C7.06746 13.351 7.03737 13.2079 7.03611 13.063C7.03485 12.9182 7.06245 12.7746 7.11729 12.6405C7.17213 12.5065 7.25312 12.3847 7.35553 12.2823C7.45794 12.1799 7.57972 12.0989 7.71377 12.0441C7.84782 11.9892 7.99144 11.9616 8.13627 11.9629C8.28109 11.9641 8.42422 11.9942 8.55729 12.0514C8.69036 12.1086 8.81072 12.1917 8.91133 12.2958L11.4091 14.7969L16.0916 10.1144C16.2973 9.9157 16.5728 9.80576 16.8588 9.80825C17.1448 9.81073 17.4183 9.92544 17.6206 10.1277C17.8228 10.3299 17.9375 10.6035 17.94 10.8894C17.9425 11.1754 17.8325 11.451 17.6338 11.6567H17.6371Z" fill="#00A3FF"/>
</svg>
